<svg width="18" height="18" viewBox="0 0 18 18" fill="none" xmlns="http://www.w3.org/2000/svg">
    <path
    d="M2.12162 0.0575123C1.68461 0.163305 1.04319 0.537107 0.733051 0.875645C0.577983 1.04491 0.34538 1.39756 0.225554 1.65851L0 2.13105V9.0076V15.8841L0.225554 16.3567C0.535691 17.0126 0.930412 17.4217 1.57183 17.739L2.10752 18H8.98693H15.8663L16.402 17.739C17.0294 17.4217 17.4452 17.0126 17.7342 16.3919C18.1148 15.5738 18.0796 14.8333 17.6496 14.6146C17.4029 14.4806 17.2056 14.4806 16.9589 14.6146C16.7404 14.7275 16.6346 14.9461 16.5641 15.4257C16.5078 15.8277 16.2611 16.2086 15.9157 16.4202C15.6549 16.5894 15.6126 16.5894 13.6954 16.6106L11.7359 16.6317V14.0574V11.4761H12.6169C13.9068 11.4761 14.0478 11.3703 14.1112 10.3124C14.1465 9.77636 14.1394 9.72699 13.9703 9.53656L13.7941 9.32498L12.765 9.30382L11.7359 9.28266V7.99904C11.7359 6.9129 11.757 6.68015 11.8627 6.47562C12.0813 6.03834 12.2927 5.94665 13.1315 5.89728C14.224 5.84086 14.3791 5.6998 14.3791 4.77588C14.372 3.83785 14.1394 3.68268 12.7791 3.725C12.0178 3.75321 11.9473 3.76732 11.4398 4.01417C10.8407 4.31744 10.2416 4.87462 9.95258 5.40358C9.6213 6.01013 9.55081 6.44741 9.55081 7.92851V9.28971H8.71204C7.76753 9.28971 7.57017 9.33908 7.3869 9.6212C7.20364 9.89626 7.20364 10.8696 7.3869 11.1446C7.57017 11.4267 7.76753 11.4761 8.71204 11.4761H9.55081V14.0504V16.6317L5.9349 16.6106L2.31898 16.5894L2.02999 16.399C1.87492 16.2932 1.67051 16.0887 1.57888 15.9406L1.40971 15.6726V9.0076V2.34264L1.57888 2.07463C1.67051 1.92652 1.87492 1.72199 2.02999 1.6162L2.31898 1.42577H8.97988H15.6478L15.9157 1.59504C16.0637 1.68672 16.2681 1.89126 16.3738 2.04642L16.5641 2.33559L16.5994 7.13154C16.6205 9.77636 16.6628 11.991 16.6981 12.0615C16.7686 12.2096 17.0998 12.393 17.3042 12.393C17.5439 12.393 17.8399 12.2025 17.9316 11.991C17.995 11.8428 18.0091 10.5381 17.995 6.95521L17.9739 2.124L17.7131 1.58798C17.3959 0.946173 16.9871 0.551212 16.3315 0.240887L15.8593 0.0151939L9.1279 0.0010891C5.20889 -0.00596428 2.28374 0.0222473 2.12162 0.0575123Z"
    fill="currentColor"></path>
</svg>